<?xml version="1.0" standalone="no"?>
<!DOCTYPE svg PUBLIC "-//W3C//DTD SVG 20010904//EN"
 "http://www.w3.org/TR/2001/REC-SVG-20010904/DTD/svg10.dtd">
<svg version="1.0" xmlns="http://www.w3.org/2000/svg"
 width="512.000000pt" height="512.000000pt" viewBox="0 0 512.000000 512.000000"
 preserveAspectRatio="xMidYMid meet">

<g transform="translate(0.000000,512.000000) scale(0.100000,-0.100000)"
fill="#000000" stroke="none">
<path d="M2635 4734 c-670 -91 -1248 -474 -1599 -1061 -177 -295 -278 -632
-302 -1005 l-7 -108 -363 -2 -364 -3 487 -488 488 -487 490 490 490 490 -368
0 -367 0 0 40 c0 140 36 341 91 505 85 251 220 466 414 660 267 266 567 418
950 482 122 20 381 19 510 -2 500 -81 929 -365 1191 -790 165 -266 254 -580
254 -895 0 -315 -89 -629 -254 -895 -197 -320 -514 -580 -856 -703 -210 -76
-371 -104 -595 -104 -432 0 -806 144 -1138 436 l-68 60 -172 -172 -171 -171
24 -27 c48 -51 215 -185 310 -249 365 -243 772 -365 1215 -365 352 0 647 68
962 220 237 116 432 258 621 455 814 845 814 2185 0 3030 -189 197 -384 339
-621 455 -225 109 -442 174 -680 205 -145 18 -434 18 -572 -1z"/>
<path d="M2687 3534 c-4 -4 -7 -280 -7 -613 l1 -606 515 -305 c283 -168 519
-306 523 -308 12 -4 183 291 172 297 -5 3 -196 116 -425 251 l-415 245 -3 520
-3 520 -176 3 c-96 1 -178 -1 -182 -4z"/>
</g>
</svg>
